<svg xmlns="http://www.w3.org/2000/svg" viewBox="0 0 512 512" width="512" height="512">
  <!-- Background circle -->
  <circle cx="256" cy="256" r="240" fill="#047e38"/>

  <!-- Chat bubble -->
  <path d="M 140 160
           Q 140 130, 170 130
           L 342 130
           Q 372 130, 372 160
           L 372 280
           Q 372 310, 342 310
           L 220 310
           L 175 355
           L 185 310
           L 170 310
           Q 140 310, 140 280
           Z"
        fill="white" opacity="0.95"/>

  <!-- Three sparkle stars -->
  <!-- Large sparkle (center-right) -->
  <g transform="translate(290, 210)">
    <path d="M 0 -28 C 3 -10, 10 -3, 28 0 C 10 3, 3 10, 0 28 C -3 10, -10 3, -28 0 C -10 -3, -3 -10, 0 -28 Z" fill="#fac421"/>
  </g>

  <!-- Medium sparkle (left) -->
  <g transform="translate(200, 195)">
    <path d="M 0 -20 C 2 -7, 7 -2, 20 0 C 7 2, 2 7, 0 20 C -2 7, -7 2, -20 0 C -7 -2, -2 -7, 0 -20 Z" fill="#fac421"/>
  </g>

  <!-- Small sparkle (top-right) -->
  <g transform="translate(330, 170)">
    <path d="M 0 -14 C 1.5 -5, 5 -1.5, 14 0 C 5 1.5, 1.5 5, 0 14 C -1.5 5, -5 1.5, -14 0 C -5 -1.5, -1.5 -5, 0 -14 Z" fill="#fac421"/>
  </g>

  <!-- Tiny sparkle (bottom-left) -->
  <g transform="translate(180, 260)">
    <path d="M 0 -10 C 1 -3.5, 3.5 -1, 10 0 C 3.5 1, 1 3.5, 0 10 C -1 3.5, -3.5 1, -10 0 C -3.5 -1, -1 -3.5, 0 -10 Z" fill="#fac421"/>
  </g>
</svg>