<svg xmlns="http://www.w3.org/2000/svg" viewBox="0 0 512 512" width="512" height="512">
  <!-- Rounded square background (app icon style) -->
  <rect x="16" y="16" width="480" height="480" rx="108" ry="108" fill="#047e38"/>

  <!-- Chat bubble -->
  <path d="M 132 155
           Q 132 120, 167 120
           L 350 120
           Q 385 120, 385 155
           L 385 282
           Q 385 317, 350 317
           L 216 317
           L 163 372
           L 176 317
           L 167 317
           Q 132 317, 132 282
           Z"
        fill="white" opacity="0.95"/>

  <!-- Big sparkle inside -->
  <g transform="translate(240, 198)">
    <path d="M 0 -38 C 5 -14, 14 -5, 38 0 C 14 5, 5 14, 0 38 C -5 14, -14 5, -38 0 C -14 -5, -5 -14, 0 -38 Z" fill="#fac421"/>
  </g>

  <!-- Medium sparkle -->
  <g transform="translate(320, 248)">
    <path d="M 0 -22 C 3 -8, 8 -3, 22 0 C 8 3, 3 8, 0 22 C -3 8, -8 3, -22 0 C -8 -3, -3 -8, 0 -22 Z" fill="#fac421"/>
  </g>
</svg>