<svg xmlns="http://www.w3.org/2000/svg" viewBox="0 0 512 512" width="512" height="512">
  <!-- AskERP Logo — Bold Trio: Chat bubble with 3 gold sparkles -->
  <!-- Brand green: #047e38 | Brand gold: #fac421 -->

  <!-- Background circle -->
  <circle cx="256" cy="256" r="240" fill="#047e38"/>

  <!-- Chat bubble — rounded, modern -->
  <path d="M 148 155
           Q 148 122, 181 122
           L 345 122
           Q 378 122, 378 155
           L 378 282
           Q 378 315, 345 315
           L 222 315
           L 172 368
           L 184 315
           L 181 315
           Q 148 315, 148 282
           Z"
        fill="white" opacity="0.95"/>

  <!-- Large 4-point sparkle (center-right) -->
  <g transform="translate(272, 205)">
    <path d="M 0 -38 C 5 -14, 14 -5, 38 0 C 14 5, 5 14, 0 38 C -5 14, -14 5, -38 0 C -14 -5, -5 -14, 0 -38 Z" fill="#fac421"/>
  </g>

  <!-- Medium sparkle (upper-left) -->
  <g transform="translate(195, 180)">
    <path d="M 0 -24 C 3 -9, 9 -3, 24 0 C 9 3, 3 9, 0 24 C -3 9, -9 3, -24 0 C -9 -3, -3 -9, 0 -24 Z" fill="#fac421"/>
  </g>

  <!-- Small sparkle (lower-right) -->
  <g transform="translate(340, 265)">
    <path d="M 0 -16 C 2 -6, 6 -2, 16 0 C 6 2, 2 6, 0 16 C -2 6, -6 2, -16 0 C -6 -2, -2 -6, 0 -16 Z" fill="#fac421"/>
  </g>
</svg>